<!DOCTYPE svg PUBLIC "-//W3C//DTD SVG 1.1//EN" "http://www.w3.org/Graphics/SVG/1.1/DTD/svg11.dtd">
<!-- Uploaded to: SVG Repo, www.svgrepo.com, Transformed by: SVG Repo Mixer Tools -->
<svg fill="#000000" version="1.1" id="Capa_1" xmlns="http://www.w3.org/2000/svg" xmlns:xlink="http://www.w3.org/1999/xlink" width="64px" height="64px" viewBox="-286.08 -286.08 1144.32 1144.32" xml:space="preserve">
<g id="SVGRepo_bgCarrier" stroke-width="0"/>
<g id="SVGRepo_tracerCarrier" stroke-linecap="round" stroke-linejoin="round"/>
<g id="SVGRepo_iconCarrier"> <g> <polygon points="495.405,241.769 418.657,197.457 418.657,258.115 314.042,258.115 314.042,153.498 374.699,153.498 330.389,76.751 286.078,0 241.769,76.751 197.457,153.498 258.115,153.498 258.115,258.115 153.498,258.115 153.498,197.457 76.751,241.767 0,286.078 76.751,330.387 153.498,374.699 153.498,314.042 258.115,314.042 258.115,418.657 197.457,418.657 241.767,495.405 286.078,572.156 330.387,495.405 374.699,418.657 314.042,418.657 314.042,314.042 418.657,314.042 418.657,374.699 495.405,330.389 572.156,286.078 "/> </g> </g>
</svg>